<svg id="Calque_2" data-name="Calque 2" xmlns="http://www.w3.org/2000/svg" viewBox="0 0 192 192"><defs><style>.cls-1,.cls-2{fill:none;stroke:#000;stroke-linecap:round;stroke-width:8px;}.cls-1{stroke-linejoin:round;}.cls-2{stroke-miterlimit:10;}</style></defs><path class="cls-1" d="M24.87,125.82V101H36.41c2.31,0,6.92,1.74,6.92,6.64s-2.3,7.5-6.06,7.5H24.87"/><line class="cls-1" x1="36.12" y1="115.14" x2="43.33" y2="125.82"/><path class="cls-1" d="M24,136.09h9.06a1.72,1.72,0,0,1,1.67,1.28L41,159.18a1.73,1.73,0,0,0,3.26.13L68.61,94.84a2,2,0,0,1,3.73,0l15,40.16a1.74,1.74,0,0,0,1.62,1.1H99"/><path class="cls-1" d="M96.43,125.82V101.29H108c5.07,0,10.1,4.8,10.1,12.41s-4.76,12.12-10.1,12.12Z"/><line class="cls-1" x1="130.48" y1="100.14" x2="130.48" y2="125.82"/><ellipse class="cls-1" cx="155.45" cy="113.12" rx="12.55" ry="12.99"/><line class="cls-2" x1="68.53" y1="47.99" x2="68.53" y2="72.27"/><path class="cls-2" d="M85.83,48.18a14.08,14.08,0,0,0-10,3.33c-4.46,3.78-7.35,8.76-7.35,14.7"/><line class="cls-2" x1="111.22" y1="39.76" x2="111.22" y2="72.27"/><line class="cls-2" x1="100.21" y1="48.18" x2="124.12" y2="48.18"/><path class="cls-2" d="M138.65,63.08h25.92c2,0,8.82.79,7.18-5.94-.87-3.58-3.42-6.1-6.62-7.77a22,22,0,0,0-10-2.59,19.65,19.65,0,0,0-12.54,4.11c-5.45,4.57-8.17,15.17-3.94,21.38"/><path class="cls-2" d="M23.47,53.58C26,48.18,29.7,47.42,34.15,47c5.19-.48,11.16-.3,15.19,3.49A7.43,7.43,0,0,1,51.6,56l0,16.28"/><path class="cls-2" d="M51.59,56A6.64,6.64,0,0,1,49,61.22a13.59,13.59,0,0,1-5.58,2.32,101.34,101.34,0,0,1-11.66,1.39c-3.23.33-7.31.44-9.72,2.92a7.22,7.22,0,0,0-2,4.42"/></svg>