<svg id="Calque_2" data-name="Calque 2" xmlns="http://www.w3.org/2000/svg" viewBox="0 0 192 192"><defs><style>.cls-1{fill:none;stroke:#000;stroke-linecap:round;stroke-miterlimit:10;stroke-width:8px;}</style></defs><line class="cls-1" x1="68.53" y1="87.98" x2="68.53" y2="112.25"/><path class="cls-1" d="M85.83,88.17a14,14,0,0,0-10,3.32c-4.46,3.79-7.35,8.76-7.35,14.71"/><line class="cls-1" x1="111.22" y1="79.74" x2="111.22" y2="112.26"/><line class="cls-1" x1="100.21" y1="88.17" x2="124.12" y2="88.17"/><path class="cls-1" d="M138.65,103.06h25.92c2,0,8.82.79,7.18-5.93-.87-3.58-3.42-6.11-6.62-7.77a22.17,22.17,0,0,0-10-2.6,19.65,19.65,0,0,0-12.54,4.11c-5.45,4.57-8.17,15.17-3.94,21.39"/><path class="cls-1" d="M23.47,93.57C26,88.17,29.7,87.41,34.15,87c5.19-.49,11.16-.31,15.19,3.49A7.43,7.43,0,0,1,51.6,96l0,16.27"/><path class="cls-1" d="M51.59,96A6.64,6.64,0,0,1,49,101.21a13.73,13.73,0,0,1-5.58,2.32,101.34,101.34,0,0,1-11.66,1.39c-3.23.32-7.31.43-9.72,2.91a7.27,7.27,0,0,0-2,4.42"/></svg>