<svg id="Calque_2" data-name="Calque 2" xmlns="http://www.w3.org/2000/svg" viewBox="0 0 192 192"><defs><style>.cls-1,.cls-2{fill:none;stroke:#000;}.cls-1{stroke-linecap:round;stroke-linejoin:round;stroke-width:8px;}.cls-2{stroke-miterlimit:10;}</style></defs><path class="cls-1" d="M36.32,100.24a50.26,50.26,0,0,0-1.76,5.6,45.55,45.55,0,0,0-1.06,5.73,29.69,29.69,0,0,0,.82,12.08c1.36,3.95,5.53,8.68,11.28,12.85,25,17.14,64.26,34,89.74,7.33,8-8.63,11.16-19.89,13.53-31.23,2.95-12.56,5.08-27.84,2.71-39.46C147.61,48.48,122,42,101,39.88c-7.46-.69-14.64-1.05-21.54-1.14a2.65,2.65,0,0,1-.87-5.13c6.25-2.28,13.32-4.6,18-5.41A101.11,101.11,0,0,1,125,27.26c51.75,6.92,55,53.7,37.43,94a65,65,0,0,1-36.64,37,114.11,114.11,0,0,1-64,4.4c-20.69-5-47.28-24.1-40.7-47.8A31.14,31.14,0,0,1,32.63,97.35a2.44,2.44,0,0,1,3.7,2.85Z"/><path class="cls-2" d="M102.53,61.19c-4.17,21.08-8.23,42.05-12.4,63.14-1.35,6.87,13-1.13,14-5.75,4.17-21.09,8.23-42.06,12.4-63.14,1.24-7-13.07,1-14,5.75Z"/><path class="cls-1" d="M102.53,61.19c-4.17,21.08-8.23,42.05-12.4,63.14-1.35,6.87,13-1.13,14-5.75,4.17-21.09,8.23-42.06,12.4-63.14,1.24-7-13.07,1-14,5.75Z"/></svg>