<svg id="Calque_2" data-name="Calque 2" xmlns="http://www.w3.org/2000/svg" xmlns:xlink="http://www.w3.org/1999/xlink" viewBox="0 0 192 192"><defs><style>.cls-1,.cls-2{fill:none;}.cls-2{stroke:#000;stroke-linecap:round;stroke-linejoin:round;stroke-width:8px;}.cls-3{clip-path:url(#clip-path);}.cls-4{clip-path:url(#clip-path-2);}</style><clipPath id="clip-path"><polygon class="cls-1" points="58.31 70.01 58.31 70.01 82.29 70.01 82.29 93.99 58.31 93.99 58.31 70.01"/></clipPath><clipPath id="clip-path-2"><polygon class="cls-1" points="133.69 70.01 133.69 70.01 109.71 70.01 109.71 93.99 133.69 93.99 133.69 70.01"/></clipPath></defs><rect class="cls-2" x="20" y="56.82" width="152" height="78.36"/><path class="cls-2" d="M87.51,106.19l-.22.09L20,135.18H172l-67.29-28.9-.22-.09"/><path class="cls-2" d="M104.49,106.19,172,57,103.09,77.85a24.46,24.46,0,0,1-14.18,0L20,57l67.51,49.19A19.94,19.94,0,0,1,104.49,106.19Z"/><g id="_Répétition_miroir_" data-name="&lt;Répétition miroir&gt;"><g class="cls-3"><circle cx="70.3" cy="82" r="11.99"/></g></g><g id="_Répétition_miroir_2" data-name="&lt;Répétition miroir&gt;"><g class="cls-4"><circle cx="121.7" cy="82" r="11.99"/></g></g></svg>