<svg id="Calque_2" data-name="Calque 2" xmlns="http://www.w3.org/2000/svg" viewBox="0 0 192 192"><path d="M99.92,63.4a8.06,8.06,0,0,0-6.59-3.35H52A36,36,0,0,0,16.09,98.62C17.41,117.31,33.56,132,52.86,132l9,0a27,27,0,0,0,25.78-18.84l13.52-42.38A8.06,8.06,0,0,0,99.92,63.4ZM88.36,71.85l-12,37.7a15.32,15.32,0,0,1-14.61,10.67H52.82c-13.16,0-24.15-9.83-25-22.39a24.2,24.2,0,0,1,24.14-26Z"/><path d="M175.91,93.38h0c-1.32-18.69-17.47-33.33-36.77-33.33H125.77a20.93,20.93,0,0,0-20,14.61L90.9,121.31A8.16,8.16,0,0,0,98.67,132H140a36,36,0,0,0,35.88-38.57Zm-18.75,19.7a24.08,24.08,0,0,1-17.13,7.1H103.61L117,78.25a9.14,9.14,0,0,1,8.76-6.4l13.37,0c13.16,0,24.15,9.83,25,22.39A24.14,24.14,0,0,1,157.16,113.08Z"/></svg>