<svg id="Calque_2" data-name="Calque 2" xmlns="http://www.w3.org/2000/svg" viewBox="0 0 192 192"><defs><style>.cls-1{fill:none;stroke:#222221;stroke-linecap:round;stroke-linejoin:round;stroke-width:12px;}</style></defs><path id="path38" class="cls-1" d="M96,170.5c-44-.5-65.83-28-65.83-62.46a59.94,59.94,0,0,1,.53-8,5,5,0,0,1,5-4.39H59.13a6.8,6.8,0,0,1,6.9,8.16,27.68,27.68,0,0,0-.32,4.2c0,15.88,13.56,28.74,30.29,28.74a32.39,32.39,0,0,0,4-.24,6,6,0,0,1,6.64,6v21.83a6,6,0,0,1-5.54,6c-1.67.12-3.36.18-5.06.18m35.44-49a6,6,0,0,1-5.82-7.42,27.68,27.68,0,0,0,.67-6.07c0-15.87-13.56-28.74-30.29-28.74-.88,0-1.76,0-2.62.11a6,6,0,0,1-6.37-6V27.5a6,6,0,0,1,6-6H113.6a6,6,0,0,1,6,6V45.66a6,6,0,0,0,3.68,5.53C146,61,161.83,82.78,161.83,108a59.22,59.22,0,0,1-.59,8.37,6.2,6.2,0,0,1-5.94,5.12Z"/></svg>