<svg id="Calque_2" data-name="Calque 2" xmlns="http://www.w3.org/2000/svg" viewBox="0 0 192 192"><defs><style>.cls-1,.cls-2{fill:none;stroke:#000;stroke-width:8px;}.cls-1{stroke-linecap:round;stroke-linejoin:round;}.cls-2{stroke-miterlimit:10;}</style></defs><path class="cls-1" d="M87,45.54a3.25,3.25,0,0,1,1.4-6h.09c15.63-1.44,29.13,3.85,41.05,13.56a52.36,52.36,0,0,1,19.34,34.59c2.22,16.55-1.11,31.84-12.11,44.85-9.92,11.74-22.49,18.88-37.88,20.71l-.18,0A5.69,5.69,0,0,1,94.82,143a50.86,50.86,0,0,0,6-4.92,54,54,0,0,0,14.79-26.89A67.76,67.76,0,0,0,116,82.82c-2.4-11.93-8.69-21.57-17.88-29.41A122.33,122.33,0,0,0,87,45.54Z"/><circle class="cls-2" cx="96" cy="96" r="74"/></svg>