<svg id="Calque_2" data-name="Calque 2" xmlns="http://www.w3.org/2000/svg" viewBox="0 0 192 192"><defs><style>.cls-1{fill:none;stroke:#000;stroke-linecap:round;stroke-linejoin:round;stroke-width:8px;}</style></defs><path d="M169.2,84.83c13.19,3.89,4.4,20-5.28,22.42-3.52.61-5.36-4-2.57-5.88,1.06-.81,2.46-1.36,3.07-2.61-7-4.09-4.56-13,3.25-13.93Z"/><polyline class="cls-1" points="97.72 103.91 97.79 128.14 97.86 150.78"/><line class="cls-1" x1="118.54" y1="126.3" x2="122.89" y2="147.66"/><line class="cls-1" x1="128.93" y1="102.69" x2="142.73" y2="142.3"/><path class="cls-1" d="M138.51,122.93a14.87,14.87,0,0,1,8.68-7.52,9,9,0,0,1,6.7.31c3.16,1.59,4.7,5.23,5.5,8.68.61,2.66.9,5.55-.27,8a8.47,8.47,0,0,1-5.09,4.28c-4.74,1.51-10.68-.5-13.77-4.34a10.59,10.59,0,0,1-2.49-5.13A7.82,7.82,0,0,1,138.51,122.93Z"/><path class="cls-1" d="M34.73,107.76s-2.51,17.38-2.51,19.59v7.74S53.14,122,55.68,118"/><path class="cls-1" d="M63.06,130.54s13.46,3.46,15.36,3,7-10.19,1.24-12.87-14.42-.14-15.76,5.63-4.72,16.16,6.1,19.51a12.06,12.06,0,0,0,8.42-1.17"/><path d="M115.35,117.13a4.5,4.5,0,1,0-4.5-4.5,4.55,4.55,0,0,0,4.5,4.5Z"/></svg>